<?xml version="1.0" encoding="UTF-8"?><svg id="COALFAMILY" xmlns="http://www.w3.org/2000/svg" viewBox="0 0 200 1000"><defs><style>.cls-1{fill:#26c672;}.cls-2{opacity:.33;}</style></defs><g id="PRUH_TRANSPARENT" class="cls-2"><g><rect class="cls-1" x="62.53" y="23.87" width="12.86" height="12.84"/><polygon class="cls-1" points="137.47 44.3 137.47 98.76 124.62 98.76 124.62 57.14 106.42 57.14 106.42 98.76 93.57 98.76 93.57 57.14 75.39 57.14 75.39 98.76 62.53 98.76 62.53 44.3 137.47 44.3"/><rect class="cls-1" x="124.62" y="23.87" width="12.85" height="12.84"/><rect class="cls-1" x="93.57" y="23.87" width="12.85" height="12.84"/></g><g><rect class="cls-1" x="62.53" y="111.6" width="12.86" height="12.84"/><polygon class="cls-1" points="137.47 132.03 137.47 186.49 124.62 186.49 124.62 144.87 106.42 144.87 106.42 186.49 93.57 186.49 93.57 144.87 75.39 144.87 75.39 186.49 62.53 186.49 62.53 132.03 137.47 132.03"/><rect class="cls-1" x="124.62" y="111.6" width="12.85" height="12.84"/><rect class="cls-1" x="93.57" y="111.6" width="12.85" height="12.84"/></g><g><rect class="cls-1" x="62.53" y="199.34" width="12.86" height="12.84"/><polygon class="cls-1" points="137.47 219.77 137.47 274.23 124.62 274.23 124.62 232.61 106.42 232.61 106.42 274.23 93.57 274.23 93.57 232.61 75.39 232.61 75.39 274.23 62.53 274.23 62.53 219.77 137.47 219.77"/><rect class="cls-1" x="124.62" y="199.34" width="12.85" height="12.84"/><rect class="cls-1" x="93.57" y="199.34" width="12.85" height="12.84"/></g><g><rect class="cls-1" x="62.53" y="287.08" width="12.86" height="12.84"/><polygon class="cls-1" points="137.47 307.51 137.47 361.97 124.62 361.97 124.62 320.35 106.42 320.35 106.42 361.97 93.57 361.97 93.57 320.35 75.39 320.35 75.39 361.97 62.53 361.97 62.53 307.51 137.47 307.51"/><rect class="cls-1" x="124.62" y="287.08" width="12.85" height="12.84"/><rect class="cls-1" x="93.57" y="287.08" width="12.85" height="12.84"/></g><g><rect class="cls-1" x="62.53" y="374.82" width="12.86" height="12.84"/><polygon class="cls-1" points="137.47 395.25 137.47 449.71 124.62 449.71 124.62 408.09 106.42 408.09 106.42 449.71 93.57 449.71 93.57 408.09 75.39 408.09 75.39 449.71 62.53 449.71 62.53 395.25 137.47 395.25"/><rect class="cls-1" x="124.62" y="374.82" width="12.85" height="12.84"/><rect class="cls-1" x="93.57" y="374.82" width="12.85" height="12.84"/></g><g><rect class="cls-1" x="62.53" y="462.56" width="12.86" height="12.84"/><polygon class="cls-1" points="137.47 482.99 137.47 537.44 124.62 537.44 124.62 495.82 106.42 495.82 106.42 537.44 93.57 537.44 93.57 495.82 75.39 495.82 75.39 537.44 62.53 537.44 62.53 482.99 137.47 482.99"/><rect class="cls-1" x="124.62" y="462.56" width="12.85" height="12.84"/><rect class="cls-1" x="93.57" y="462.56" width="12.85" height="12.84"/></g><g><rect class="cls-1" x="62.53" y="550.29" width="12.86" height="12.84"/><polygon class="cls-1" points="137.47 570.72 137.47 625.18 124.62 625.18 124.62 583.56 106.42 583.56 106.42 625.18 93.57 625.18 93.57 583.56 75.39 583.56 75.39 625.18 62.53 625.18 62.53 570.72 137.47 570.72"/><rect class="cls-1" x="124.62" y="550.29" width="12.85" height="12.84"/><rect class="cls-1" x="93.57" y="550.29" width="12.85" height="12.84"/></g><g><rect class="cls-1" x="62.53" y="638.03" width="12.86" height="12.84"/><polygon class="cls-1" points="137.47 658.46 137.47 712.92 124.62 712.92 124.62 671.3 106.42 671.3 106.42 712.92 93.57 712.92 93.57 671.3 75.39 671.3 75.39 712.92 62.53 712.92 62.53 658.46 137.47 658.46"/><rect class="cls-1" x="124.62" y="638.03" width="12.85" height="12.84"/><rect class="cls-1" x="93.57" y="638.03" width="12.85" height="12.84"/></g><g><rect class="cls-1" x="62.53" y="725.77" width="12.86" height="12.84"/><polygon class="cls-1" points="137.47 746.2 137.47 800.66 124.62 800.66 124.62 759.04 106.42 759.04 106.42 800.66 93.57 800.66 93.57 759.04 75.39 759.04 75.39 800.66 62.53 800.66 62.53 746.2 137.47 746.2"/><rect class="cls-1" x="124.62" y="725.77" width="12.85" height="12.84"/><rect class="cls-1" x="93.57" y="725.77" width="12.85" height="12.84"/></g><g><rect class="cls-1" x="62.53" y="813.51" width="12.86" height="12.84"/><polygon class="cls-1" points="137.47 833.94 137.47 888.4 124.62 888.4 124.62 846.78 106.42 846.78 106.42 888.4 93.57 888.4 93.57 846.78 75.39 846.78 75.39 888.4 62.53 888.4 62.53 833.94 137.47 833.94"/><rect class="cls-1" x="124.62" y="813.51" width="12.85" height="12.84"/><rect class="cls-1" x="93.57" y="813.51" width="12.85" height="12.84"/></g><g><rect class="cls-1" x="62.53" y="901.24" width="12.86" height="12.84"/><polygon class="cls-1" points="137.47 921.67 137.47 976.13 124.62 976.13 124.62 934.51 106.42 934.51 106.42 976.13 93.57 976.13 93.57 934.51 75.39 934.51 75.39 976.13 62.53 976.13 62.53 921.67 137.47 921.67"/><rect class="cls-1" x="124.62" y="901.24" width="12.85" height="12.84"/><rect class="cls-1" x="93.57" y="901.24" width="12.85" height="12.84"/></g></g></svg>