<?xml version="1.0" encoding="UTF-8"?>
<svg id="SQUARE_COLOR_BLACK" data-name="SQUARE COLOR BLACK" xmlns="http://www.w3.org/2000/svg" width="110mm" height="110mm" viewBox="0 0 311.81 311.81">
  <defs>
    <style>
      .cls-1 {
        fill: #c181c6;
      }

      .cls-1, .cls-2 {
        stroke-width: 0px;
      }

      .cls-2 {
        fill: #27251f;
      }
    </style>
  </defs>
  <path class="cls-1" d="M101.73,73.09v108.34h108.34v-108.34h-108.34ZM115.56,86.94h13.84v58.21h-13.84v-58.21ZM196.21,167.17h-80.65v-13.84h80.65v13.84ZM196.21,86.94v58.37h-57.37v-36.35h13.84v22.52h29.7v-30.69h-43.54v-13.84c19.12,0,38.25,0,57.37,0h0Z"/>
  <g>
    <path class="cls-2" d="M64.85,221.06v-2.68c-.5-.09-.99-.13-1.47-.13-1.35,0-2.3.39-2.83,1.18-.53.78-.8,2.03-.8,3.73s.28,2.96.83,3.78,1.53,1.23,2.93,1.23,2.82-.2,4.29-.59l.49,3.14c-1.53.44-3.16.65-4.91.65-4.84,0-7.26-2.73-7.26-8.18,0-2.81.55-4.87,1.65-6.17,1.1-1.3,2.94-1.95,5.51-1.95,1.66,0,3.25.21,4.78.62v5.37h-3.21Z"/>
    <path class="cls-2" d="M72.77,217.11c1.11-1.32,2.82-1.98,5.14-1.98s4.02.66,5.14,1.98c1.11,1.32,1.67,3.35,1.67,6.1s-.56,4.79-1.67,6.13c-1.11,1.34-2.82,2.01-5.14,2.01s-4.02-.67-5.14-2.01c-1.11-1.34-1.67-3.39-1.67-6.13s.56-4.78,1.67-6.1ZM75.4,219.45c-.45.76-.67,2.02-.67,3.76s.23,3.01.69,3.79c.46.79,1.29,1.18,2.49,1.18s2.03-.39,2.49-1.18c.46-.78.69-2.05.69-3.79s-.22-3-.67-3.76c-.45-.76-1.28-1.14-2.5-1.14s-2.06.38-2.5,1.14Z"/>
    <path class="cls-2" d="M91.81,231.3c-3.49,0-5.23-1.66-5.23-4.97,0-1.77.56-3,1.68-3.71,1.12-.71,2.68-1.06,4.66-1.06.94,0,2.01.05,3.21.16,0-1.31-.19-2.2-.56-2.68-.37-.48-1.01-.72-1.93-.72s-1.98.11-3.21.33c-1.22.22-2.16.44-2.81.65l-.62-3.11c2.29-.7,4.53-1.05,6.71-1.05s3.69.48,4.53,1.44c.84.96,1.26,2.58,1.26,4.87v6.64l.36,2.88-3.37.33-.33-1.5c-1.83,1-3.28,1.5-4.35,1.5ZM92.33,228.12c.61,0,1.29-.14,2.03-.43.74-.28,1.33-.6,1.77-.95v-2.29c-1.31-.11-2.38-.16-3.21-.16-1.81,0-2.72.68-2.72,2.03,0,1.2.71,1.8,2.13,1.8Z"/>
    <path class="cls-2" d="M104.05,212.13l-.03-2.98,6.97-.03v18.88h3.66v2.94h-10.73v-2.94h3.7v-15.9l-3.57.03Z"/>
    <path class="cls-2" d="M120.3,215.4l.1.88c.83-.76,1.64-1.14,2.42-1.14,1.11,0,1.95.41,2.52,1.24,1.13-.83,2.14-1.24,3.01-1.24,1.31,0,2.24.38,2.8,1.14.56.76.83,2.18.83,4.25v10.4h-3.34v-8.96c0-2.01-.17-3.16-.52-3.47-.17-.17-.43-.26-.75-.26s-.74.22-1.24.65c.11.5.16,1.53.16,3.08v3.63h-3.3v-3.63c0-1.98-.12-3.14-.36-3.47-.13-.17-.35-.26-.67-.26s-.79.24-1.42.72v11.97h-3.44v-15.54h3.21Z"/>
    <path class="cls-2" d="M138.43,231.3c-3.49,0-5.23-1.66-5.23-4.97,0-1.77.56-3,1.68-3.71,1.12-.71,2.68-1.06,4.66-1.06.94,0,2.01.05,3.21.16,0-1.31-.19-2.2-.56-2.68-.37-.48-1.01-.72-1.93-.72s-1.98.11-3.21.33c-1.22.22-2.16.44-2.81.65l-.62-3.11c2.29-.7,4.53-1.05,6.71-1.05s3.69.48,4.53,1.44c.84.96,1.26,2.58,1.26,4.87v6.64l.36,2.88-3.37.33-.33-1.5c-1.83,1-3.28,1.5-4.35,1.5ZM138.95,228.12c.61,0,1.29-.14,2.03-.43.74-.28,1.33-.6,1.77-.95v-2.29c-1.31-.11-2.38-.16-3.21-.16-1.81,0-2.72.68-2.72,2.03,0,1.2.71,1.8,2.13,1.8Z"/>
    <path class="cls-2" d="M150.07,218.41v-3.01h5.89l.07,1.57c.7-.39,1.61-.77,2.73-1.13,1.12-.36,2.16-.59,3.12-.7v3.27c-.85.09-1.86.32-3.04.69-1.18.37-2.12.75-2.81,1.15v7.75h4.78v2.94h-10.73v-3.01h2.52v-9.52h-2.52Z"/>
    <path class="cls-2" d="M174.9,215.4h3.63c-2.44,3.97-4.03,6.39-4.78,7.26.41.59.93,1.37,1.54,2.36l3.53,5.92h-3.89l-1.54-2.75c-1.03-1.83-1.78-3.13-2.26-3.89l-2.29.26v6.38h-3.37v-21.82h3.37v12.53l2.22-.23c.57-.74,1.34-1.92,2.32-3.55s1.48-2.45,1.5-2.47Z"/>
    <path class="cls-2" d="M181.87,217.18c1.18-1.36,2.81-2.04,4.91-2.04s3.71.62,4.86,1.85c1.15,1.23,1.74,3.04,1.78,5.41l-.13,2.42h-9.55c.2,2.36,1.37,3.53,3.53,3.53,1.5,0,3.1-.27,4.78-.82l.69,2.85c-.7.24-1.6.45-2.72.64-1.11.19-2.03.28-2.75.28-4.78,0-7.16-2.7-7.16-8.11,0-2.64.59-4.64,1.77-6ZM186.91,218.18c-1.03,0-1.79.3-2.31.9-.51.6-.8,1.6-.87,2.99h6.05c0-2.6-.96-3.89-2.88-3.89Z"/>
    <path class="cls-2" d="M198.62,218.41h-2.49v-3.01h2.49v-3.73l3.37-.33v4.06h5.82v3.01h-5.82v6.58c0,1.2.12,2.04.36,2.52.26.48.83.72,1.7.72s2.03-.17,3.47-.52l.56,2.94c-1.66.44-3.07.65-4.25.65-2.09,0-3.48-.47-4.17-1.41-.69-.94-1.03-2.57-1.03-4.91v-6.58Z"/>
    <path class="cls-2" d="M212.95,218.47v-3.01h7v12.46h3.63v3.01h-10.89v-3.01h3.89v-9.45h-3.63ZM216.68,212.6c-.41-.42-.62-.92-.62-1.49s.2-1.05.59-1.44c.39-.39.87-.59,1.44-.59s1.05.19,1.44.57c.39.38.59.87.59,1.46s-.2,1.09-.59,1.5c-.39.41-.86.62-1.41.62s-1.03-.21-1.44-.64Z"/>
    <path class="cls-2" d="M230.22,215.4l.06.95c1.77-.81,3.15-1.21,4.15-1.21,1.77,0,3.07.52,3.91,1.55.84,1.04,1.26,2.66,1.26,4.86v9.39h-3.37v-9.29c0-1.05-.19-1.86-.56-2.45s-.95-.88-1.73-.88-2,.38-3.63,1.14v11.48h-3.37v-15.54h3.27Z"/>
    <path class="cls-2" d="M255.58,227.17l.1,4.51c0,1.88-.63,3.31-1.9,4.32-1.27,1-2.98,1.51-5.14,1.51s-4.25-.36-6.28-1.08l.82-3.01c1.96.65,3.59.98,4.87.98s2.32-.22,3.09-.67c.77-.45,1.16-1.12,1.16-2.01,0-.17-.02-.52-.05-1.03-.03-.51-.05-.91-.05-1.19-1.4.98-2.75,1.47-4.06,1.47-2.01,0-3.53-.62-4.58-1.86-1.05-1.24-1.57-3.22-1.57-5.94s.59-4.72,1.78-6.02c1.19-1.3,2.82-1.95,4.89-1.95.46,0,1.04.11,1.75.33.71.22,1.3.46,1.78.72l.07-.95h3.3v11.88ZM248.38,227.86c1.11,0,2.39-.54,3.83-1.64v-6.74c-1.24-.78-2.39-1.18-3.43-1.18-2.09,0-3.14,1.59-3.14,4.78s.92,4.78,2.75,4.78Z"/>
  </g>
</svg>