<?xml version="1.0" encoding="UTF-8"?>
<svg id="LONG_MONO_BLACK" data-name="LONG MONO BLACK" xmlns="http://www.w3.org/2000/svg" width="215mm" height="50mm" viewBox="0 0 609.45 141.73">
  <defs>
    <style>
      .cls-1 {
        fill: #27251f;
        stroke-width: 0px;
      }
    </style>
  </defs>
  <path class="cls-1" d="M37.07,31.64v78.45h78.45V31.64H37.07ZM47.09,41.67h10.02v42.15h-10.02v-42.15ZM105.49,99.76h-58.4v-10.02h58.4v10.02ZM105.49,41.67v42.26h-41.54v-26.32h10.02v16.3h21.5v-22.22h-31.52v-10.02c13.85,0,27.7,0,41.54,0h0Z"/>
  <g>
    <path class="cls-1" d="M164.07,70.45v-5.74c-1.07-.19-2.12-.28-3.15-.28-2.89,0-4.91.84-6.05,2.52-1.14,1.68-1.72,4.34-1.72,7.98s.6,6.33,1.79,8.08,3.28,2.62,6.27,2.62,6.04-.42,9.17-1.26l1.05,6.72c-3.27.93-6.77,1.4-10.5,1.4-10.36,0-15.54-5.83-15.54-17.5,0-6.02,1.18-10.42,3.54-13.2,2.36-2.78,6.29-4.17,11.79-4.17,3.55,0,6.95.44,10.22,1.33v11.48h-6.86Z"/>
    <path class="cls-1" d="M181.01,62.02c2.38-2.82,6.04-4.23,10.99-4.23s8.61,1.41,10.99,4.23c2.38,2.82,3.57,7.17,3.57,13.06s-1.19,10.25-3.57,13.12c-2.38,2.87-6.04,4.3-10.99,4.3s-8.61-1.44-10.99-4.3c-2.38-2.87-3.57-7.25-3.57-13.12s1.19-10.23,3.57-13.06ZM186.64,67.02c-.96,1.63-1.44,4.32-1.44,8.05s.49,6.44,1.47,8.12c.98,1.68,2.75,2.52,5.32,2.52s4.34-.84,5.32-2.52c.98-1.68,1.47-4.39,1.47-8.12s-.48-6.42-1.44-8.05c-.96-1.63-2.74-2.45-5.35-2.45s-4.4.82-5.35,2.45Z"/>
    <path class="cls-1" d="M221.75,92.36c-7.47,0-11.2-3.55-11.2-10.64,0-3.78,1.2-6.43,3.6-7.95,2.4-1.52,5.73-2.27,9.98-2.27,2.01,0,4.29.12,6.86.35,0-2.8-.4-4.71-1.19-5.74-.79-1.03-2.17-1.54-4.13-1.54s-4.25.23-6.86.7c-2.61.47-4.62.93-6.02,1.4l-1.33-6.65c4.9-1.49,9.68-2.24,14.35-2.24s7.9,1.03,9.69,3.08c1.8,2.05,2.7,5.53,2.7,10.43v14.21l.77,6.16-7.21.7-.7-3.22c-3.92,2.15-7.02,3.22-9.31,3.22ZM222.87,85.57c1.31,0,2.75-.3,4.34-.91,1.59-.61,2.85-1.28,3.78-2.03v-4.9c-2.8-.23-5.09-.35-6.86-.35-3.87,0-5.81,1.45-5.81,4.34,0,2.57,1.52,3.85,4.55,3.85Z"/>
    <path class="cls-1" d="M247.93,51.34l-.07-6.37,14.91-.07v40.39h7.84v6.3h-22.96v-6.3h7.91v-34.02l-7.63.07Z"/>
    <path class="cls-1" d="M282.72,58.34l.21,1.89c1.77-1.63,3.5-2.45,5.18-2.45,2.38,0,4.18.89,5.39,2.66,2.43-1.77,4.57-2.66,6.44-2.66,2.8,0,4.79.82,5.98,2.45,1.19,1.63,1.79,4.67,1.79,9.1v22.26h-7.14v-19.18c0-4.29-.37-6.77-1.12-7.42-.37-.37-.91-.56-1.61-.56s-1.59.47-2.66,1.4c.23,1.07.35,3.27.35,6.58v7.77h-7.07v-7.77c0-4.25-.26-6.72-.77-7.42-.28-.37-.76-.56-1.44-.56s-1.69.51-3.04,1.54v25.62h-7.35v-33.25h6.86Z"/>
    <path class="cls-1" d="M321.5,92.36c-7.47,0-11.2-3.55-11.2-10.64,0-3.78,1.2-6.43,3.6-7.95,2.4-1.52,5.73-2.27,9.98-2.27,2.01,0,4.29.12,6.86.35,0-2.8-.4-4.71-1.19-5.74-.79-1.03-2.17-1.54-4.13-1.54s-4.25.23-6.86.7c-2.61.47-4.62.93-6.02,1.4l-1.33-6.65c4.9-1.49,9.68-2.24,14.35-2.24s7.9,1.03,9.69,3.08c1.8,2.05,2.7,5.53,2.7,10.43v14.21l.77,6.16-7.21.7-.7-3.22c-3.92,2.15-7.02,3.22-9.31,3.22ZM322.62,85.57c1.31,0,2.75-.3,4.34-.91,1.59-.61,2.85-1.28,3.78-2.03v-4.9c-2.8-.23-5.09-.35-6.86-.35-3.87,0-5.81,1.45-5.81,4.34,0,2.57,1.52,3.85,4.55,3.85Z"/>
    <path class="cls-1" d="M346.42,64.78v-6.44h12.6l.14,3.36c1.49-.84,3.44-1.65,5.84-2.42,2.4-.77,4.63-1.27,6.69-1.5v7c-1.82.19-3.99.68-6.51,1.47-2.52.79-4.53,1.61-6.02,2.45v16.59h10.22v6.3h-22.96v-6.44h5.39v-20.37h-5.39Z"/>
    <path class="cls-1" d="M399.55,58.34h7.77c-5.23,8.49-8.63,13.67-10.22,15.54.89,1.26,1.98,2.94,3.29,5.04l7.56,12.67h-8.33l-3.29-5.88c-2.19-3.92-3.8-6.7-4.83-8.33l-4.9.56v13.65h-7.21v-46.69h7.21v26.81l4.76-.49c1.21-1.59,2.87-4.12,4.97-7.59s3.17-5.24,3.22-5.29Z"/>
    <path class="cls-1" d="M414.46,62.16c2.52-2.92,6.02-4.38,10.5-4.38s7.94,1.32,10.4,3.95c2.45,2.64,3.72,6.5,3.81,11.59l-.28,5.18h-20.44c.42,5.04,2.94,7.56,7.56,7.56,3.22,0,6.63-.58,10.22-1.75l1.47,6.09c-1.49.51-3.43.97-5.81,1.37-2.38.4-4.34.59-5.88.59-10.22,0-15.33-5.79-15.33-17.36,0-5.65,1.26-9.93,3.78-12.84ZM425.24,64.29c-2.19,0-3.84.64-4.94,1.92-1.1,1.28-1.72,3.42-1.85,6.41h12.95c0-5.55-2.05-8.33-6.16-8.33Z"/>
    <path class="cls-1" d="M450.3,64.78h-5.32v-6.44h5.32v-7.98l7.21-.7v8.68h12.46v6.44h-12.46v14.07c0,2.57.26,4.36.77,5.39.56,1.03,1.77,1.54,3.64,1.54s4.34-.37,7.42-1.12l1.19,6.3c-3.55.93-6.58,1.4-9.1,1.4-4.48,0-7.46-1-8.93-3.01-1.47-2.01-2.21-5.51-2.21-10.5v-14.07Z"/>
    <path class="cls-1" d="M480.96,64.92v-6.44h14.98v26.67h7.77v6.44h-23.31v-6.44h8.33v-20.23h-7.77ZM488.94,52.36c-.89-.91-1.33-1.97-1.33-3.18s.42-2.24,1.26-3.08c.84-.84,1.87-1.26,3.08-1.26s2.24.41,3.08,1.22c.84.82,1.26,1.86,1.26,3.12s-.42,2.33-1.26,3.22c-.84.89-1.84,1.33-3.01,1.33s-2.19-.46-3.08-1.37Z"/>
    <path class="cls-1" d="M517.92,58.34l.14,2.03c3.78-1.73,6.74-2.59,8.89-2.59,3.78,0,6.57,1.11,8.37,3.32,1.8,2.22,2.7,5.68,2.7,10.4v20.09h-7.21v-19.88c0-2.24-.4-3.99-1.19-5.25s-2.03-1.89-3.71-1.89-4.27.82-7.77,2.45v24.57h-7.21v-33.25h7Z"/>
    <path class="cls-1" d="M572.17,83.54l.21,9.66c0,4.01-1.35,7.09-4.06,9.24-2.71,2.15-6.37,3.22-10.99,3.22s-9.1-.77-13.44-2.31l1.75-6.44c4.2,1.4,7.68,2.1,10.43,2.1s4.96-.48,6.61-1.43c1.66-.96,2.49-2.39,2.49-4.31,0-.37-.04-1.11-.1-2.21-.07-1.1-.11-1.95-.11-2.55-2.99,2.1-5.88,3.15-8.68,3.15-4.29,0-7.56-1.33-9.8-3.99-2.24-2.66-3.36-6.9-3.36-12.71s1.27-10.1,3.81-12.88c2.54-2.78,6.03-4.17,10.47-4.17.98,0,2.23.23,3.74.7,1.52.47,2.79.98,3.82,1.54l.14-2.03h7.07v25.41ZM556.77,85.01c2.38,0,5.11-1.17,8.19-3.5v-14.42c-2.66-1.68-5.11-2.52-7.35-2.52-4.48,0-6.72,3.41-6.72,10.22s1.96,10.22,5.88,10.22Z"/>
  </g>
</svg>