<?xml version="1.0" encoding="UTF-8"?><svg id="LONG_COLOR_BLACK" xmlns="http://www.w3.org/2000/svg" viewBox="0 0 609.45 141.73"><defs><style>.cls-1{fill:#26c672;}.cls-2{fill:#27251f;}</style></defs><g id="LOGO"><g id="TEXT"><path class="cls-2" d="M182.51,73.37v-6.99c-1.31-.23-2.59-.34-3.84-.34-3.52,0-5.98,1.02-7.37,3.07-1.39,2.04-2.09,5.28-2.09,9.72s.72,7.71,2.17,9.84c1.45,2.13,3.99,3.2,7.63,3.2s7.36-.51,11.17-1.54l1.28,8.18c-3.98,1.14-8.24,1.71-12.79,1.71-12.62,0-18.93-7.1-18.93-21.31,0-7.33,1.43-12.69,4.3-16.07,2.87-3.38,7.66-5.07,14.37-5.07,4.32,0,8.47,.54,12.45,1.62v13.98h-8.35Z"/><path class="cls-2" d="M204.09,63.02c2.92-3.42,7.4-5.13,13.46-5.13s10.55,1.71,13.46,5.13,4.37,8.68,4.37,15.8-1.46,12.41-4.37,15.88c-2.92,3.47-7.4,5.21-13.46,5.21s-10.55-1.74-13.46-5.21c-2.91-3.47-4.37-8.77-4.37-15.88s1.46-12.38,4.37-15.8Zm6.9,6.06c-1.17,1.98-1.76,5.22-1.76,9.74s.6,7.79,1.8,9.83c1.2,2.03,3.37,3.05,6.52,3.05s5.32-1.02,6.52-3.05c1.2-2.03,1.8-5.31,1.8-9.83s-.59-7.76-1.76-9.74c-1.17-1.98-3.36-2.97-6.56-2.97s-5.39,.99-6.56,2.97Z"/><path class="cls-2" d="M257.02,100.05c-9.09,0-13.64-4.33-13.64-13,0-4.62,1.46-7.85,4.39-9.71,2.93-1.85,6.98-2.78,12.15-2.78,2.44,0,5.23,.14,8.36,.43,0-3.42-.48-5.76-1.45-7.02-.97-1.25-2.64-1.88-5.03-1.88s-5.17,.29-8.35,.86c-3.18,.57-5.63,1.14-7.33,1.71l-1.62-8.13c5.97-1.82,11.79-2.74,17.48-2.74s9.62,1.26,11.81,3.76c2.19,2.51,3.28,6.76,3.28,12.75v17.37l.94,7.53-8.78,.86-.85-3.93c-4.77,2.62-8.55,3.93-11.34,3.93Zm1.36-8.3c1.59,0,3.35-.37,5.29-1.11,1.93-.74,3.47-1.57,4.6-2.48v-5.99c-3.41-.29-6.2-.43-8.36-.43-4.72,0-7.08,1.77-7.08,5.3,0,3.14,1.85,4.71,5.54,4.71Z"/><path class="cls-2" d="M381.58,100.05c-9.09,0-13.64-4.33-13.64-13,0-4.62,1.46-7.85,4.39-9.71,2.93-1.85,6.98-2.78,12.15-2.78,2.44,0,5.23,.14,8.36,.43,0-3.42-.48-5.76-1.45-7.02-.97-1.25-2.64-1.88-5.03-1.88s-5.17,.29-8.35,.86c-3.18,.57-5.63,1.14-7.33,1.71l-1.62-8.13c5.97-1.82,11.79-2.74,17.48-2.74s9.62,1.26,11.81,3.76c2.19,2.51,3.28,6.76,3.28,12.75v17.37l.94,7.53-8.78,.86-.85-3.93c-4.77,2.62-8.55,3.93-11.34,3.93Zm1.36-8.3c1.59,0,3.35-.37,5.29-1.11,1.93-.74,3.47-1.57,4.6-2.48v-5.99c-3.41-.29-6.2-.43-8.36-.43-4.72,0-7.08,1.77-7.08,5.3,0,3.14,1.85,4.71,5.54,4.71Z"/><path class="cls-2" d="M285.68,100.05v-8.07h13.04V49.68l-11.29,.09-.09-7.99,20.4-.09v50.28h12.34v8.07h-34.4Z"/><path class="cls-2" d="M494.47,100.05v-8.07h13.04V49.68l-11.29,.09-.09-7.99,20.4-.09v50.28h12.34v8.07h-34.4Z"/><path class="cls-2" d="M416.7,57.79l.25,3.15c2.12-2.04,4.18-3.06,6.19-3.06,2.84,0,4.99,1.11,6.44,3.32,2.9-2.21,5.46-3.32,7.69-3.32,3.35,0,5.73,1.02,7.15,3.06,1.42,2.04,2.13,5.82,2.13,11.35v27.76h-8.53v-23.92c0-5.35-.45-8.44-1.34-9.25-.45-.46-1.09-.7-1.92-.7s-1.9,.58-3.18,1.75c.28,1.34,.42,4.07,.42,8.2v9.69h-8.45v-9.69c0-5.29-.31-8.38-.92-9.25-.33-.46-.91-.7-1.71-.7s-2.02,.64-3.64,1.92v31.95h-8.78V57.79h8.2Z"/><path class="cls-2" d="M453.4,100.08v-7.98h12.67v-26.32h-11.99v-7.98h20.75v34.3h11.99v7.98h-33.42Zm16.62-46.86c-1.73,0-3.09-.53-4.08-1.61-.99-1.07-1.49-2.47-1.49-4.21s.51-3.12,1.53-4.16c1.02-1.04,2.39-1.56,4.12-1.56s3.06,.51,4,1.52,1.4,2.42,1.4,4.21-.48,3.21-1.45,4.25c-.97,1.04-2.31,1.56-4.04,1.56Z"/><path class="cls-2" d="M531.16,57.89h9.47l9.04,30.05h.7l8.61-30.05h9.39l-15.38,49.14c-.61,1.66-2.5,6.19-7.34,9.54-4.21,2.91-8.41,3.39-10.22,3.49v-10.11c2.78-.12,4.88-.52,6.3-1.19,1.42-.68,2.36-1.81,2.83-3.4l.96-3.09-14.34-44.37Z"/><path id="f" class="cls-2" d="M345.76,92.07h15.3v7.99h-33.72v-7.99h9.47v-26.29h-9.13v-7.99h9.14c.1-5.72,1.13-9.81,3.07-12.25,2.06-2.58,5.64-3.87,10.74-3.87,3.81,.05,7.6,.55,11.29,1.48l-1.39,7.91c-2.96-.73-5.99-1.14-9.04-1.22-2.43,0-3.99,.61-4.69,1.83-.62,1.09-.97,3.14-1.02,6.12h15.1v7.99h-15.12v26.29Z"/></g><path id="SYMBOL" class="cls-1" d="M41.22,31.64V110.08H119.7V31.64H41.22Zm34.23,10.06h10.01v10.01h-10.01v-10.01Zm-24.19,0h10.02v10.01h-10.02v-10.01Zm58.4,58.37h-10.01v-32.44h-14.19v32.44h-10.01v-32.44h-14.17v32.44h-10.02V57.62h58.4v42.45Zm0-48.36h-10.01v-10.01h10.01v10.01Z"/></g></svg>