<?xml version="1.0" encoding="UTF-8"?><svg xmlns="http://www.w3.org/2000/svg" viewBox="0 0 311.81 311.81"><defs><style>.cls-1{fill:#fff;}.cls-2{fill:#27251f;}</style></defs><g id="BG"><rect class="cls-2" width="311.81" height="311.81"/></g><g id="SQUARE_MONO_WHITE"><g id="LOGO"><g id="TEXT"><path class="cls-1" d="M82.62,221.07v-2.64c-.49-.09-.98-.13-1.45-.13-1.33,0-2.26,.39-2.79,1.16-.53,.77-.79,2-.79,3.67s.27,2.92,.82,3.72c.55,.81,1.51,1.21,2.88,1.21s2.78-.19,4.22-.58l.48,3.09c-1.5,.43-3.12,.65-4.83,.65-4.77,0-7.15-2.69-7.15-8.06,0-2.77,.54-4.8,1.63-6.07,1.08-1.28,2.89-1.92,5.43-1.92,1.63,0,3.2,.2,4.7,.61v5.29h-3.16Z"/><path class="cls-1" d="M91.2,217.16c1.1-1.29,2.8-1.94,5.09-1.94s3.99,.65,5.09,1.94,1.65,3.28,1.65,5.97-.55,4.69-1.65,6c-1.1,1.31-2.8,1.97-5.09,1.97s-3.99-.66-5.09-1.97c-1.1-1.31-1.65-3.31-1.65-6s.55-4.68,1.65-5.97Zm2.61,2.29c-.44,.75-.66,1.97-.66,3.68s.23,2.95,.68,3.71c.45,.77,1.27,1.15,2.46,1.15s2.01-.38,2.46-1.15c.45-.77,.68-2.01,.68-3.71s-.22-2.93-.66-3.68c-.44-.75-1.27-1.12-2.48-1.12s-2.04,.37-2.48,1.12Z"/><path class="cls-1" d="M111.73,231.16c-3.44,0-5.16-1.64-5.16-4.92,0-1.75,.55-2.97,1.66-3.67,1.11-.7,2.64-1.05,4.59-1.05,.92,0,1.98,.05,3.16,.16,0-1.29-.18-2.18-.55-2.65-.37-.47-1-.71-1.9-.71s-1.96,.11-3.16,.32c-1.2,.22-2.13,.43-2.77,.65l-.61-3.07c2.26-.69,4.46-1.03,6.61-1.03s3.64,.47,4.46,1.42c.83,.95,1.24,2.55,1.24,4.82v6.56l.35,2.85-3.32,.32-.32-1.49c-1.8,.99-3.23,1.49-4.29,1.49Zm.52-3.14c.6,0,1.27-.14,2-.42,.73-.28,1.31-.59,1.74-.94v-2.26c-1.29-.11-2.34-.16-3.16-.16-1.78,0-2.67,.67-2.67,2,0,1.19,.7,1.78,2.09,1.78Z"/><path class="cls-1" d="M161.52,231.16c-3.44,0-5.16-1.64-5.16-4.92,0-1.75,.55-2.97,1.66-3.67,1.11-.7,2.64-1.05,4.59-1.05,.92,0,1.98,.05,3.16,.16,0-1.29-.18-2.18-.55-2.65-.37-.47-1-.71-1.9-.71s-1.96,.11-3.16,.32c-1.2,.22-2.13,.43-2.77,.65l-.61-3.07c2.26-.69,4.46-1.03,6.61-1.03s3.64,.47,4.46,1.42c.83,.95,1.24,2.55,1.24,4.82v6.56l.35,2.85-3.32,.32-.32-1.49c-1.8,.99-3.23,1.49-4.29,1.49Zm.52-3.14c.6,0,1.27-.14,2-.42,.73-.28,1.31-.59,1.74-.94v-2.26c-1.29-.11-2.34-.16-3.16-.16-1.78,0-2.67,.67-2.67,2,0,1.19,.7,1.78,2.09,1.78Z"/><path class="cls-1" d="M123.2,231.16v-3.05h4.93v-15.99l-4.27,.03-.03-3.02,7.71-.03v19.01h4.67v3.05h-13Z"/><path class="cls-1" d="M207.09,231.16v-3.05h4.93v-15.99l-4.27,.03-.03-3.02,7.71-.03v19.01h4.67v3.05h-13Z"/><path class="cls-1" d="M176.08,215.18l.09,1.19c.8-.77,1.58-1.16,2.34-1.16,1.07,0,1.89,.42,2.43,1.25,1.1-.84,2.07-1.25,2.91-1.25,1.26,0,2.17,.39,2.7,1.16,.54,.77,.81,2.2,.81,4.29v10.49h-3.23v-9.04c0-2.02-.17-3.19-.51-3.5-.17-.18-.41-.26-.73-.26s-.72,.22-1.2,.66c.11,.51,.16,1.54,.16,3.1v3.66h-3.19v-3.66c0-2-.12-3.17-.35-3.5-.13-.18-.34-.26-.65-.26s-.76,.24-1.38,.73v12.08h-3.32v-15.97h3.1Z"/><path class="cls-1" d="M190.92,231.17v-3.02h4.79v-9.95h-4.53v-3.02h7.84v12.97h4.53v3.02h-12.63Zm6.28-17.71c-.65,0-1.17-.2-1.54-.61-.38-.4-.56-.93-.56-1.59s.19-1.18,.58-1.57c.39-.39,.9-.59,1.56-.59s1.16,.19,1.51,.57,.53,.91,.53,1.59-.18,1.21-.55,1.61c-.36,.39-.87,.59-1.53,.59Z"/><path class="cls-1" d="M223.64,215.22h3.58l3.42,11.36h.26l3.25-11.36h3.55l-5.82,18.58c-.23,.63-.95,2.34-2.77,3.6-1.59,1.1-3.18,1.28-3.86,1.32v-3.82c1.05-.05,1.85-.2,2.38-.45,.54-.26,.89-.69,1.07-1.29l.36-1.17-5.42-16.77Z"/><path id="f" class="cls-1" d="M146.71,228.14h5.78v3.02h-12.75v-3.02h3.58v-9.94h-3.45v-3.02h3.46c.04-2.16,.43-3.71,1.16-4.63,.78-.97,2.13-1.46,4.06-1.46,1.44,.02,2.87,.21,4.27,.56l-.53,2.99c-1.12-.28-2.26-.43-3.42-.46-.92,0-1.51,.23-1.77,.69-.23,.41-.37,1.19-.39,2.31h5.71v3.02h-5.72v9.94Z"/></g><path id="SYMBOL" class="cls-1" d="M101.73,73.09v108.34h108.4V73.09H101.73Zm47.28,13.9h13.83v13.83h-13.83v-13.83Zm-33.41,0h13.84v13.83h-13.84v-13.83Zm80.66,80.62h-13.83v-44.81h-19.6v44.81h-13.83v-44.81h-19.57v44.81h-13.84v-58.63h80.66v58.63Zm0-66.8h-13.83v-13.83h13.83v13.83Z"/></g></g></svg>