<?xml version="1.0" encoding="UTF-8"?>
<svg id="SQUARE_MONO_BLACK" data-name="SQUARE MONO BLACK" xmlns="http://www.w3.org/2000/svg" width="110mm" height="110mm" viewBox="0 0 311.81 311.81">
  <defs>
    <style>
      .cls-1 {
        fill: #27251f;
        stroke-width: 0px;
      }
    </style>
  </defs>
  <g id="LOGO">
    <g id="TEXT">
      <path class="cls-1" d="m96.65,225.09v-3.48c-.65-.11-1.28-.17-1.9-.17-1.74,0-2.96.51-3.64,1.53-.69,1.02-1.03,2.63-1.03,4.83s.36,3.84,1.07,4.9,1.97,1.59,3.77,1.59,3.64-.25,5.52-.76l.63,4.07c-1.97.56-4.07.85-6.32.85-6.23,0-9.35-3.53-9.35-10.6,0-3.64.71-6.31,2.13-7.99,1.42-1.68,3.78-2.52,7.1-2.52,2.13,0,4.18.27,6.15.81v6.95h-4.13Z"/>
      <path class="cls-1" d="m107.6,219.88c1.41-1.71,3.59-2.57,6.53-2.57s5.11.86,6.53,2.57c1.41,1.71,2.12,4.35,2.12,7.91s-.71,6.22-2.12,7.96c-1.41,1.74-3.59,2.61-6.53,2.61s-5.11-.87-6.53-2.61c-1.41-1.74-2.12-4.39-2.12-7.96s.71-6.2,2.12-7.91Zm3.35,3.03c-.57.99-.85,2.62-.85,4.88s.29,3.9.87,4.92,1.64,1.53,3.16,1.53,2.58-.51,3.16-1.53c.58-1.02.87-2.66.87-4.92s-.28-3.89-.85-4.88c-.57-.99-1.63-1.49-3.18-1.49s-2.61.5-3.18,1.49Z"/>
      <path class="cls-1" d="m132.76,238.36c-4.48,0-6.72-2.16-6.72-6.47,0-2.3.72-3.91,2.16-4.83,1.44-.92,3.43-1.38,5.98-1.38,1.2,0,2.57.07,4.11.21,0-1.7-.24-2.87-.71-3.49-.48-.62-1.3-.94-2.48-.94s-2.55.14-4.11.43c-1.57.28-2.77.57-3.61.85l-.8-4.04c2.94-.91,5.81-1.36,8.61-1.36s4.74.62,5.81,1.87c1.08,1.25,1.62,3.36,1.62,6.34v8.64l.46,3.74-4.32.43-.42-1.96c-2.35,1.31-4.21,1.96-5.58,1.96Zm.67-4.13c.78,0,1.65-.18,2.6-.55.95-.37,1.71-.78,2.27-1.23v-2.98c-1.68-.14-3.05-.21-4.11-.21-2.32,0-3.48.88-3.48,2.64,0,1.56.91,2.34,2.73,2.34Z"/>
      <path class="cls-1" d="m147.26,238.29v-3.98h6.31v-21.23l-5.47.04-.04-3.93,9.87-.04v25.16h5.97v3.98h-16.65Z"/>
      <path class="cls-1" d="m168.42,220c1.5-1.77,3.59-2.66,6.25-2.66s4.73.8,6.19,2.4c1.46,1.6,2.22,3.95,2.27,7.04l-.17,3.15h-12.18c.25,3.06,1.75,4.6,4.5,4.6,1.92,0,3.95-.35,6.09-1.06l.88,3.7c-.89.31-2.04.59-3.46.83-1.42.24-2.59.36-3.5.36-6.09,0-9.13-3.52-9.13-10.55,0-3.43.75-6.03,2.25-7.81Zm6.42,1.3c-1.31,0-2.29.39-2.94,1.17-.65.78-1.02,2.08-1.11,3.89h7.71c0-3.38-1.22-5.06-3.67-5.06Z"/>
      <path class="cls-1" d="m204.58,209.16v25.12l.42,3.6-4.29.43-.38-1.99c-1.84,1.36-3.64,2.04-5.39,2.04-2.63,0-4.61-.79-5.94-2.36-1.33-1.57-2-4.24-2-7.99s.81-6.53,2.42-8.34c1.61-1.8,3.71-2.71,6.28-2.71,1.5,0,3.01.33,4.54,1v-8.79h4.33Zm-9.34,25.03c1.5,0,3.17-.78,5.01-2.34v-9.66c-1.47-.72-2.92-1.08-4.33-1.08-2.8,0-4.2,2.3-4.2,6.89,0,4.13,1.17,6.2,3.52,6.2Z"/>
      <path class="cls-1" d="m222.16,238.31l-.08-1.95c-2.27,1.3-4.11,1.95-5.52,1.95-2.29,0-3.96-.67-5.01-2.01-1.05-1.34-1.57-3.49-1.57-6.43v-12.57h4.37v12.31c0,2.98.95,4.46,2.84,4.46,1.5,0,3.11-.59,4.84-1.78v-14.99h4.37v21.01h-4.25Z"/>
    </g>
    <g id="ICON">
      <rect class="cls-1" x="129.32" y="123.47" width="27.75" height="8.41"/>
      <rect class="cls-1" x="129.32" y="101.21" width="53.08" height="8.41"/>
      <rect class="cls-1" x="129.32" y="123.47" width="27.75" height="8.41"/>
      <rect class="cls-1" x="129.32" y="101.21" width="53.08" height="8.41"/>
      <rect class="cls-1" x="129.32" y="123.47" width="27.75" height="8.41"/>
      <rect class="cls-1" x="129.32" y="101.21" width="53.08" height="8.41"/>
      <path class="cls-1" d="m101.67,73.09v108.39h108.37v-108.39h-108.37Zm80.72,94.93h-53.08v-8.41h53.08v8.41Zm13.82-22.29h-80.72v-58.35h80.72v58.35Z"/>
    </g>
  </g>
</svg>