<?xml version="1.0" encoding="UTF-8"?>
<svg id="LONG_COLOR_WHITE" data-name="LONG COLOR WHITE" xmlns="http://www.w3.org/2000/svg" width="200mm" height="50mm" viewBox="0 0 566.93 141.73">
  <defs>
    <style>
      .cls-1 {
        fill: #f2c700;
      }

      .cls-1, .cls-2 {
        stroke-width: 0px;
      }

      .cls-2 {
        fill: #fff;
      }
    </style>
  </defs>
  <g id="LOGO">
    <g id="TEXT">
      <path class="cls-2" d="M224.17,73.51v-6.96c-1.3-.23-2.56-.34-3.8-.34-3.49,0-5.92,1.02-7.3,3.06-1.38,2.04-2.07,5.27-2.07,9.68s.72,7.69,2.15,9.81,3.95,3.19,7.55,3.19,7.29-.51,11.06-1.53l1.27,8.15c-3.94,1.13-8.16,1.7-12.66,1.7-12.49,0-18.74-7.08-18.74-21.23,0-7.3,1.42-12.64,4.26-16.01,2.84-3.37,7.58-5.05,14.22-5.05,4.28,0,8.38.54,12.32,1.61v13.93h-8.27Z"/>
      <path class="cls-2" d="M246.1,63.06c2.83-3.43,7.19-5.14,13.08-5.14s10.25,1.72,13.08,5.14c2.83,3.43,4.25,8.72,4.25,15.86s-1.42,12.46-4.25,15.94c-2.83,3.49-7.2,5.23-13.08,5.23s-10.25-1.74-13.08-5.23-4.25-8.8-4.25-15.94,1.42-12.43,4.25-15.86ZM252.81,69.14c-1.14,1.98-1.71,5.24-1.71,9.78s.58,7.82,1.75,9.86,3.28,3.06,6.33,3.06,5.17-1.02,6.33-3.06c1.17-2.04,1.75-5.33,1.75-9.86s-.57-7.79-1.71-9.78c-1.14-1.98-3.26-2.98-6.37-2.98s-5.24.99-6.38,2.98Z"/>
      <path class="cls-2" d="M296.52,100.09c-8.97,0-13.46-4.32-13.46-12.96,0-4.6,1.44-7.83,4.33-9.68,2.89-1.85,6.88-2.77,11.99-2.77,2.41,0,5.16.14,8.24.43,0-3.41-.48-5.74-1.43-6.99-.95-1.25-2.61-1.88-4.96-1.88s-5.1.28-8.24.85c-3.14.57-5.55,1.14-7.23,1.71l-1.6-8.1c5.89-1.82,11.64-2.73,17.24-2.73s9.49,1.25,11.65,3.75c2.16,2.5,3.24,6.74,3.24,12.71v17.31l.93,7.5-8.66.85-.84-3.92c-4.71,2.62-8.44,3.92-11.19,3.92ZM297.86,91.82c1.57,0,3.31-.37,5.22-1.11,1.91-.74,3.42-1.56,4.54-2.47v-5.97c-3.36-.28-6.11-.43-8.24-.43-4.66,0-6.98,1.76-6.98,5.29,0,3.13,1.82,4.69,5.47,4.69Z"/>
      <path class="cls-2" d="M325.58,99.97v-7.97h12.65v-42.54l-10.95.09-.08-7.88,19.78-.09v50.43h11.97v7.97h-33.37Z"/>
      <path class="cls-2" d="M367.99,63.3c3.01-3.55,7.19-5.33,12.53-5.33s9.48,1.61,12.41,4.82c2.92,3.21,4.44,7.92,4.55,14.11l-.33,6.31h-24.4c.5,6.14,3.51,9.21,9.02,9.21,3.84,0,7.91-.71,12.2-2.13l1.75,7.42c-1.78.63-4.09,1.18-6.94,1.66-2.84.48-5.18.72-7.02.72-12.2,0-18.3-7.05-18.3-21.15,0-6.88,1.5-12.09,4.51-15.65ZM380.86,65.9c-2.62,0-4.58.78-5.89,2.35-1.31,1.56-2.05,4.16-2.21,7.8h15.46c0-6.76-2.45-10.15-7.35-10.15Z"/>
      <path class="cls-2" d="M440.45,41.59v50.34l.85,7.21-8.59.87-.77-3.99c-3.69,2.72-7.29,4.08-10.81,4.08-5.28,0-9.25-1.58-11.91-4.73-2.67-3.15-4-8.49-4-16.02s1.62-13.1,4.85-16.71c3.23-3.62,7.43-5.43,12.59-5.43,3.01,0,6.04.67,9.1,2v-17.61h8.68ZM421.73,91.76c3.01,0,6.35-1.56,10.04-4.69v-19.36c-2.95-1.45-5.84-2.17-8.68-2.17-5.62,0-8.42,4.6-8.42,13.81,0,8.28,2.35,12.42,7.06,12.42Z"/>
      <path class="cls-2" d="M475.67,100.01l-.17-3.91c-4.54,2.6-8.23,3.91-11.06,3.91-4.59,0-7.94-1.35-10.04-4.04-2.1-2.69-3.15-6.99-3.15-12.89v-25.18h8.76v24.66c0,5.96,1.9,8.94,5.7,8.94,3.01,0,6.24-1.19,9.7-3.56v-30.04h8.76v42.11h-8.51Z"/>
    </g>
    <g id="ICON">
      <rect class="cls-1" x="102.75" y="67.99" width="20.07" height="6.08"/>
      <rect class="cls-1" x="102.75" y="51.88" width="38.4" height="6.08"/>
      <rect class="cls-1" x="102.75" y="67.99" width="20.07" height="6.08"/>
      <rect class="cls-1" x="102.75" y="51.88" width="38.4" height="6.08"/>
      <rect class="cls-1" x="102.75" y="67.99" width="20.07" height="6.08"/>
      <rect class="cls-1" x="102.75" y="51.88" width="38.4" height="6.08"/>
      <path class="cls-1" d="M82.75,31.54v78.42h78.41V31.54h-78.41ZM141.15,100.21h-38.4v-6.08h38.4v6.08ZM151.15,84.09h-58.4v-42.22h58.4v42.22Z"/>
    </g>
  </g>
</svg>